<?xml version="1.0" encoding="UTF-8" standalone="no"?>
<svg width="291px" height="249px" viewBox="0 0 291 249" version="1.1" xmlns="http://www.w3.org/2000/svg" xmlns:xlink="http://www.w3.org/1999/xlink" xmlns:sketch="http://www.bohemiancoding.com/sketch/ns">
    <g id="Page-1" stroke="none" stroke-width="1" fill="none" fill-rule="evenodd" sketch:type="MSPage">
        <g id="SST_Favicon_" sketch:type="MSLayerGroup">
            <path d="M205.016,34.928 L274.787,34.928 L274.787,167.821 L205.016,167.821 L205.016,34.928 Z" id="Fill-1" fill="#FFFFFF" sketch:type="MSShapeGroup"></path>
            <path d="M69.126,143.597 C78.652,143.597 86.081,141.501 91.415,137.309 C96.748,133.116 99.403,126.432 99.403,117.233 C99.403,114.531 99.17,112.109 98.681,109.896 C98.192,107.707 97.307,105.681 96.05,103.841 C94.792,102.024 93.092,100.301 90.972,98.717 C88.876,97.133 86.128,95.62 82.798,94.152 L69.243,88.283 C65.493,86.746 63.048,85.046 61.93,83.206 C60.788,81.389 60.23,79.13 60.23,76.452 C60.23,75.148 60.346,73.867 60.649,72.656 C60.905,71.421 61.441,70.35 62.232,69.418 C63.001,68.487 64.049,67.741 65.33,67.159 C66.658,66.577 68.265,66.298 70.221,66.298 C73.645,66.298 76.09,67.415 77.557,69.675 C79.025,71.91 79.747,75.101 79.747,79.247 L96.608,79.247 L96.608,76.801 C96.608,72.656 95.933,69.092 94.582,66.111 C93.255,63.153 91.368,60.708 88.969,58.798 C86.57,56.888 83.706,55.491 80.399,54.653 C77.138,53.791 73.528,53.372 69.615,53.372 C61.231,53.372 54.617,55.468 49.842,59.706 C45.021,63.945 42.622,70.373 42.622,79.014 C42.622,82.577 43.065,85.745 43.973,88.47 C44.858,91.194 46.279,93.593 48.189,95.666 C50.098,97.739 52.474,99.556 55.339,101.116 C58.18,102.653 61.557,104.074 65.446,105.378 C68.404,106.356 70.873,107.311 72.853,108.243 C74.856,109.174 76.439,110.222 77.674,111.364 C78.885,112.505 79.77,113.786 80.282,115.206 C80.818,116.627 81.097,118.327 81.097,120.284 C81.097,123.94 80.003,126.642 77.86,128.389 C75.694,130.135 73.295,131.02 70.57,131.02 C68.311,131.02 66.425,130.694 64.911,130.042 C63.397,129.39 62.209,128.505 61.301,127.364 C60.416,126.223 59.81,124.825 59.484,123.148 C59.158,121.471 58.995,119.632 58.995,117.582 L58.995,115.02 L41.411,115.02 L41.411,118.56 C41.411,126.619 43.531,132.814 47.816,137.122 C52.101,141.431 59.181,143.597 69.126,143.597" id="Fill-2" fill="#000000" sketch:type="MSShapeGroup"></path>
            <g id="Group-6" fill="#000000" sketch:type="MSShapeGroup">
                <path d="M143.95,143.597 C153.475,143.597 160.905,141.501 166.238,137.309 C171.572,133.116 174.227,126.432 174.227,117.233 C174.227,114.531 173.994,112.109 173.505,109.896 C173.016,107.707 172.131,105.681 170.873,103.841 C169.615,102.024 167.915,100.301 165.796,98.717 C163.7,97.133 160.952,95.62 157.621,94.152 L144.066,88.283 C140.317,86.746 137.871,85.046 136.753,83.206 C135.612,81.389 135.053,79.13 135.053,76.452 C135.053,75.148 135.17,73.867 135.472,72.656 C135.729,71.421 136.264,70.35 137.056,69.418 C137.825,68.487 138.873,67.741 140.154,67.159 C141.481,66.577 143.088,66.298 145.045,66.298 C148.468,66.298 150.914,67.415 152.381,69.675 C153.848,71.91 154.57,75.101 154.57,79.247 L171.432,79.247 L171.432,76.801 C171.432,72.656 170.757,69.092 169.406,66.111 C168.078,63.153 166.192,60.708 163.793,58.798 C161.394,56.888 158.529,55.491 155.222,54.653 C151.962,53.791 148.352,53.372 144.439,53.372 C136.055,53.372 129.44,55.468 124.666,59.706 C119.845,63.945 117.446,70.373 117.446,79.014 C117.446,82.577 117.888,85.745 118.797,88.47 C119.682,91.194 121.102,93.593 123.012,95.666 C124.922,97.739 127.298,99.556 130.162,101.116 C133.004,102.653 136.381,104.074 140.27,105.378 C143.228,106.356 145.697,107.311 147.676,108.243 C149.679,109.174 151.263,110.222 152.497,111.364 C153.708,112.505 154.593,113.786 155.106,115.206 C155.641,116.627 155.921,118.327 155.921,120.284 C155.921,123.94 154.826,126.642 152.684,128.389 C150.518,130.135 148.119,131.02 145.394,131.02 C143.135,131.02 141.248,130.694 139.734,130.042 C138.221,129.39 137.033,128.505 136.124,127.364 C135.239,126.223 134.634,124.825 134.308,123.148 C133.982,121.471 133.819,119.632 133.819,117.582 L133.819,115.02 L116.235,115.02 L116.235,118.56 C116.235,126.619 118.354,132.814 122.64,137.122 C126.925,141.431 134.005,143.597 143.95,143.597" id="Fill-3"></path>
                <path d="M270.63,74.372 L253.512,74.372 L253.512,142.262 L230.804,142.262 L230.804,74.372 L213.966,74.372 L213.966,55.065 L270.63,55.065 L270.63,74.372 L270.63,74.372 Z M18.446,18.523 L196.197,18.523 L196.197,178.502 L18.446,178.502 L18.446,18.523 Z M0,0.24 L0,196.784 L52.402,249 L52.402,196.784 L291.113,196.784 L291.113,0.24 L0,0.24 L0,0.24 Z" id="Fill-5"></path>
            </g>
        </g>
    </g>
</svg>