<svg xmlns="http://www.w3.org/2000/svg" width="206" height="42" viewBox="0 0 206 42" xmlns:xlink="http://www.w3.org/1999/xlink"><defs><path id="a" d="M.06.07h205.693v41.87H.06"/></defs><g fill="none" fill-rule="evenodd"><path fill="#464644" d="M54.828 39.96h-8.824V12.18h3.715v24.415h5.1v3.366m10.6-13.54v-9.25c0-1.08-.54-1.62-1.63-1.62h-1c-1.09 0-1.63.55-1.63 1.63v9.25h4.25zm-4.25 13.54h-3.71V16.94c0-3.17 1.48-4.758 4.44-4.758h2.79c2.96 0 4.45 1.587 4.45 4.758v23.02h-3.71V29.785h-4.26V39.96zm23.34-27.78V34.7c0 3.51-1.5 5.264-4.49 5.264h-3.13c-2.97 0-4.45-1.766-4.45-5.3V12.18h3.71v22.595c0 1.213.54 1.82 1.62 1.82h1.51c1 0 1.5-.607 1.5-1.82V12.18h3.72m7.13 13.387h2.44c1.11 0 1.66-.67 1.66-2.01V17.56c0-1.34-.56-2.015-1.67-2.015h-2.43v10.022zm-3.7-13.387h7.27c2.84 0 4.26 1.587 4.26 4.758v6.85c0 2.425-.74 3.96-2.21 4.604l2.6 11.568h-3.52l-2.44-11.22h-2.25v11.22h-3.71V12.18zm14.92 27.78V12.18h9.2v3.365h-5.49v8.435h4.88v3.367h-4.88v9.248h5.49v3.366h-9.208m19.91-14.35V12.18h3.72v27.78h-3.714v-5.53l-3.988-12.653V39.96h-3.716V12.18h3.72l3.99 13.425m6.55-3.25l1.785-4.992h-1.82v-5.22h2.59c1.035 0 1.55.515 1.55 1.545v3.675l-1.86 4.993h-2.244m14.54-2.708v-2.44c0-1.107-.54-1.663-1.62-1.663h-.584c-1.055 0-1.584.556-1.584 1.663v4.606c0 .515.1.866.31 1.046.204.18.54.41 1.006.697l3.52 1.893c.774.44 1.323.782 1.645 1.027.32.246.57.54.75.89.18.35.27 1.013.27 1.992v5.92c0 3.12-1.493 4.68-4.485 4.68h-2.29c-2.96 0-4.45-1.7-4.45-5.11v-1.39h3.72v1.51c0 1.08.55 1.62 1.66 1.62h.66c.97 0 1.46-.54 1.46-1.63v-4.72c0-.52-.1-.87-.31-1.05-.202-.18-.54-.41-1-.7l-3.52-1.98c-.772-.42-1.332-.76-1.68-1.05-.35-.29-.6-.65-.754-1.11-.15-.45-.23-1.04-.23-1.76V16.9c0-3.17 1.48-4.754 4.45-4.754h2.32c2.97 0 4.45 1.587 4.45 4.76v2.71h-3.72m26.05 20.33h-3.714l-4.64-13.58v-.235l3.87-13.96h3.403l-3.91 13.81 4.99 13.97zm-12.27-27.78h3.717v27.78h-3.718V12.18zm15.014 0h3.712v27.78h-3.715V12.18zm10.82 24.414h2.785c.97 0 1.47-.412 1.47-1.24V17.56c0-1.342-.56-2.014-1.67-2.014h-2.59v21.05zm-3.71 3.367V12.18h6.46c3.48 0 5.22 1.78 5.22 5.34v18.416c0 2.682-1.484 4.025-4.45 4.025h-7.234z"/><mask id="b" fill="#fff"><use xlink:href="#a"/></mask><path fill="#464644" d="M202.038 19.648v-2.44c0-1.107-.54-1.663-1.625-1.663h-.58c-1.06 0-1.586.556-1.586 1.663v4.606c0 .515.102.866.308 1.046.207.18.543.41 1.006.697l3.52 1.893c.78.44 1.33.782 1.65 1.027.32.246.58.54.76.89.19.35.28 1.013.28 1.992v5.92c0 3.12-1.49 4.68-4.49 4.68H199c-2.964 0-4.45-1.7-4.45-5.11v-1.39h3.718v1.51c0 1.08.556 1.62 1.666 1.62h.655c.98 0 1.47-.54 1.47-1.63v-4.72c0-.52-.1-.87-.31-1.05-.21-.18-.54-.41-1.01-.7l-3.52-1.98c-.77-.42-1.34-.76-1.68-1.05-.35-.29-.6-.65-.76-1.11-.15-.45-.23-1.04-.23-1.76V16.9c0-3.17 1.49-4.754 4.45-4.754h2.32c2.96 0 4.45 1.587 4.45 4.76v2.71h-3.72M31.31 18.19c-.44.206-.733.538-.993.94-.186.286-.364.674-.75.695-.255.016-1.233-.627-1.338-.692-.11-.06-.14-.03-.08.04.79.786 1.18 1.85.17 2.65-.46.365-1.13.525-1.7.405-1.08-.23-.84-1.942-.72-2.72v-.047l-.04-.05-.06-.01-.04.03c-.66.44-2.12 1.36-2.78.47-.35-.47-.48-1.15-.33-1.71.31-1.25 1.44-1.33 2.48-.93.09.04.1-.01 0-.08-.1-.06-1.09-.69-1.18-.93-.14-.36.14-.68.32-.97.26-.4.44-.8.446-1.29.007-.29-.03-.81.42-.73.09.02.25.07.34.13 1.16.75 1.36 2.2 1.31 3.46-.02.34-.054.68-.106 1.01-.015.1.105.04.15.05l.006.006.1.12c.283-.19.577-.36.88-.51 1.13-.57 2.53-.98 3.69-.24.095.066.205.185.26.26.264.375-.225.557-.49.68m-2.6-8.11c-7.18-1.87-10.746 4.705-10.823 4.85-.078-.145-3.645-6.72-10.825-4.85-7.238 1.87-15.1 14.35 10.84 31.9h.005V42c25.94-17.55 18.09-30.03 10.83-31.92m11.62-5.722c-.056-.078-.165-.197-.26-.26-1.16-.743-2.56-.33-3.69.238-.304.153-.598.324-.88.51l-.1-.118-.006-.005c-.046-.01-.166.05-.15-.043.05-.332.085-.672.103-1.01.06-1.266-.14-2.71-1.3-3.46-.094-.063-.25-.113-.342-.13-.45-.09-.41.432-.41.73 0 .483-.18.885-.44 1.288-.18.287-.46.608-.32.97.1.24 1.08.866 1.19.933.1.07.09.12 0 .08-1.04-.39-2.17-.31-2.482.94-.14.57-.01 1.25.33 1.72.657.89 2.12-.03 2.778-.46l.04-.02.06.02.044.05-.01.05c-.128.78-.37 2.5.712 2.72.57.12 1.243-.04 1.7-.4 1.01-.8.615-1.86-.176-2.65-.064-.07-.03-.09.07-.03.11.07 1.087.71 1.34.697.387-.02.566-.41.75-.694.26-.404.554-.735.99-.94.27-.127.76-.31.494-.68" mask="url(#b)"/></g></svg>