<svg xmlns="http://www.w3.org/2000/svg" width="248" height="50" viewBox="0 0 248 50"><style>.style0{fill: none;fill-rule: evenodd;}.style1{fill: #501B73;}.style2{fill: white;}.style3{mask: url(#mask-2);fill: #501B73;}.style4{mask: url(#mask-2);fill: #00A7D0;}</style><g class="style0"><path d="M13.6 23.1c0 .4.02.78.1 1.1.05.34.16.6.33.84.17.22.4.4.68.52.3.13.7.2 1.1.2.5 0 1-.17 1.4-.52.4-.34.6-.88.6-1.6 0-.4 0-.7-.1-1-.1-.28-.2-.53-.5-.76-.2-.22-.5-.42-.9-.6-.4-.2-.8-.38-1.4-.58-.7-.25-1.4-.54-1.9-.84-.5-.3-1-.66-1.3-1.07-.3-.4-.6-.9-.8-1.5-.1-.6-.2-1.2-.2-1.9 0-1.7.5-3 1.4-3.8.9-.9 2.2-1.3 3.8-1.3.8 0 1.4.1 2 .2.7.2 1.2.4 1.7.8s.8.8 1.1 1.4c.25.5.4 1.2.4 2.1v.4h-3.2c0-.8-.14-1.48-.4-1.9-.3-.4-.75-.68-1.4-.68-.36 0-.7.06-.9.2-.26.1-.46.23-.6.4-.15.2-.25.4-.3.64-.06.26-.1.5-.1.76 0 .5.1 1 .3 1.3.2.4.7.7 1.4 1l2.54 1.18c.6.3 1.1.6 1.5.9.4.3.7.7.97 1 .3.4.4.8.5 1.2.1.5.2.9.2 1.5 0 1.8-.5 3.15-1.5 3.98-1 .83-2.4 1.24-4.2 1.24-1.9 0-3.2-.4-4-1.3-.9-.82-1.3-2.04-1.3-3.64v-.7h3.35v.5m17-12.3l4.3 17.2h-3.5l-.8-3.6h-4.4L25.7 28h-3.5l4.35-17.18h4.1zm-.5 10.7l-1.6-7.7h-.03l-1.6 7.7h3.2zm15.4-10.5v2.83h-5.9v4.05h5.54v2.82h-5.6V28h-3.32V10.8h9.2m10.72 2.83h-5.87v4.04h5.52v2.84h-5.52v4.7h5.87V28h-9.18V10.8h9.18v2.83m7.67-2.83c1.4 0 2.46.36 3.22 1.1.7.72 1.1 1.83 1.1 3.32 0 1.15-.2 2.1-.7 2.83-.5.73-1.2 1.2-2.1 1.4v.05c.8.13 1.4.4 1.8.84.4.44.6 1.14.7 2.1v2.3c0 .9 0 1.6.1 2.1.1.48.3.8.6 1v.13h-3.6c-.2-.24-.3-.52-.3-.83l-.1-.97-.1-3.3c-.1-.67-.2-1.2-.5-1.6-.3-.37-.8-.56-1.5-.56h-1.7V28H58V10.8h6.14zm-1.43 7.5c.8 0 1.42-.2 1.85-.6.4-.38.6-1.04.6-1.97 0-1.6-.8-2.4-2.3-2.4h-1.6v4.97h1.3zm10.46 9.04c0 .6-.06 1.17-.14 1.7-.1.53-.24 1-.47 1.4-.3.4-.6.7-1 .96-.4.25-.9.4-1.5.47V30.2c.4-.1.7-.32.9-.7.2-.36.3-.77.3-1.22v-.3h-1.2V24.2h3v3.13m9.4-4.23c0 .4 0 .78.1 1.1 0 .34.1.6.3.84.2.22.4.4.7.52.3.13.6.2 1.1.2.5 0 .9-.17 1.3-.52.4-.34.6-.88.6-1.6 0-.4-.1-.7-.2-1-.1-.28-.3-.53-.5-.76-.2-.22-.5-.42-.9-.6-.4-.2-.8-.38-1.4-.58-.7-.25-1.4-.54-1.9-.84-.5-.3-1-.66-1.3-1.07-.4-.4-.7-.9-.8-1.5-.2-.6-.3-1.2-.3-1.9 0-1.7.5-3 1.4-3.8.9-.9 2.1-1.3 3.7-1.3.7 0 1.4.1 2 .2.63.2 1.2.4 1.6.8.5.4.8.8 1.1 1.4.23.5.4 1.2.4 2.1v.4h-3.2c0-.8-.18-1.48-.46-1.9-.24-.4-.7-.68-1.35-.68-.4 0-.7.06-.9.2-.3.1-.48.23-.6.4-.18.2-.28.4-.3.64-.08.26-.1.5-.1.76 0 .5.1 1 .3 1.3.2.4.65.7 1.36 1l2.57 1.2c.63.3 1.14.6 1.54.9.4.3.7.7 1 1 .22.4.4.8.5 1.2.1.5.12.9.12 1.5 0 1.8-.5 3.15-1.5 3.98-1.06.86-2.46 1.27-4.2 1.27-1.9 0-3.26-.4-4.07-1.3-.8-.84-1.2-2.06-1.2-3.65v-.7h3.3v.5m14.1-12.3L99 22.7h.06l2.4-12.1h4.9V28h-3.02V14.3h-.05l-3 13.7h-2.6l-2.9-13.7h-.1V28h-3.1V10.8h4.9m19.7 0l4.32 17.17h-3.46l-.8-3.63H112l-.76 3.63h-3.4l4.34-17.17h4.1zm-.4 10.7l-1.6-7.72h-.1l-1.6 7.72h3.23zm12.4-10.7c1.37 0 2.45.36 3.2 1.1.8.72 1.17 1.83 1.17 3.32 0 1.15-.3 2.1-.7 2.83-.5.73-1.2 1.2-2.1 1.4v.05c.8.13 1.4.4 1.8.84.37.44.6 1.14.7 2.1l.07 1.04c0 .38.05.8.07 1.27 0 .9 0 1.6.1 2.1.1.47.3.8.6.98v.14h-3.6c-.2-.24-.3-.52-.3-.83l-.1-.97-.1-3.3c0-.67-.2-1.2-.5-1.6-.3-.37-.8-.56-1.5-.56h-1.75V28H122V10.8h6.1zm-1.3 7.5c.8 0 1.4-.2 1.83-.6.45-.38.66-1.04.66-1.97 0-1.6-.7-2.4-2.3-2.4h-1.5v4.97h1.4zm17.7-4.67H141v14.34h-3.3V13.63h-3.6V10.8h10.5v2.83m10.73 0h-5.87v4.04h5.5v2.84h-5.5v4.7h5.8V28h-9.16V10.8h9.2l-.04 2.83" class="style1"/><path d="M163.1 10.8c1.37 0 2.45.36 3.2 1.1.78.72 1.16 1.83 1.16 3.32 0 1.15-.22 2.1-.67 2.83-.5.73-1.2 1.2-2.1 1.4v.05c.8.13 1.4.4 1.8.84.4.44.6 1.14.7 2.1v2.3c0 .9 0 1.6.1 2.1.1.48.3.8.6 1v.13h-3.6c-.2-.24-.3-.52-.3-.83-.1-.3-.1-.64-.1-.97l-.1-3.3c-.1-.67-.2-1.2-.5-1.6-.3-.37-.8-.56-1.5-.56H160V28h-3.3V10.8h6.1zm-1.44 7.5c.8 0 1.4-.2 1.84-.6.43-.38.65-1.04.65-1.97 0-1.6-.77-2.4-2.3-2.4h-1.57v4.97h1.38z" class="style3"/><path d="M0 0v38.72L9.88 49V38.72h237.5V0H0zm3.48 3.6h171.07v31.5H3.48V3.6zm188.57 11h-3.23v13.37h-4.28V14.6h-3.17v-3.8h10.68v3.8zm11.28-.15h-5.45v2.94h5.1v3.5h-5.1v3.4h5.46v3.6h-9.74V10.8h9.74v3.65zm11.3 0h-5.47v2.94h5.1v3.5h-5.1v3.4h5.46v3.6h-9.74V10.8h9.74v3.65zm13.14 13.52h-4.7l-2.85-10.6h-.05v10.6h-4V10.8h4.8l2.75 10.58h.05V10.8h4v17.17zm11.3-.97c-1 .82-2.44 1.23-4.33 1.23-.9 0-1.68-.07-2.36-.22-.68-.1-1.26-.4-1.72-.8-.47-.3-.83-.8-1.08-1.4-.24-.6-.37-1.3-.37-2.2V23h4.2v.4c0 .74.2 1.25.4 1.55.3.3.6.45 1 .45.5 0 .8-.18 1-.5.3-.3.4-.7.4-1.17 0-.56-.1-1-.5-1.34-.3-.4-.7-.6-1.2-.9-.5-.3-1-.5-1.6-.7-.6-.3-1.1-.6-1.6-1s-.9-.9-1.2-1.5c-.3-.6-.5-1.5-.5-2.5 0-1.8.5-3.1 1.4-4 .9-.9 2.3-1.4 4.1-1.4 1.9 0 3.2.4 4.1 1.2.9.8 1.3 2.2 1.3 4h-4v-.4c0-.5-.1-1-.3-1.3-.2-.4-.5-.6-.9-.6-.46 0-.8.1-1.02.4-.2.3-.3.63-.3 1.02 0 .6.18 1 .5 1.37.37.33.8.6 1.3.85l1.7.7c.6.24 1.2.56 1.7.96s.97.93 1.3 1.58c.36.65.5 1.5.5 2.53 0 1.85-.5 3.18-1.5 4z" class="style4"/></g></svg>