<svg xmlns="http://www.w3.org/2000/svg" xmlns:xlink="http://www.w3.org/1999/xlink" xmlns:sketch="http://www.bohemiancoding.com/sketch/ns" width="248px" height="50px" viewBox="0 0 248 50" version="1.1"><style>.style0{fill:	none;fill-rule:	evenodd;}.style1{fill:	#501B73;}.style2{fill:	white;}.style3{mask:	url(#mask-2);fill:	#501B73;}.style4{mask:	url(#mask-2);fill:	#00A7D0;}</style><defs><path d="M0.06 -0.004 L247.373 -0.004 L247.373 49 L0.06 49 L0.06 -0.004 Z"/></defs><g sketch:type="MSPage" class="style0"><g sketch:type="MSLayerGroup"><path d="M13.595 23.112 C13.595 23.51 13.624 23.88 13.686 24.206 C13.749 24.536 13.864 24.81 14.032 25.036 C14.199 25.261 14.425 25.434 14.713 25.563 C14.997 25.693 15.352 25.754 15.783 25.754 C16.292 25.754 16.742 25.586 17.15 25.241 C17.559 24.897 17.765 24.364 17.765 23.64 C17.765 23.255 17.711 22.925 17.61 22.642 C17.51 22.364 17.346 22.108 17.116 21.884 C16.886 21.657 16.585 21.456 16.206 21.271 C15.832 21.087 15.371 20.901 14.813 20.704 C14.081 20.45 13.441 20.165 12.904 19.864 C12.367 19.561 11.921 19.202 11.557 18.793 C11.196 18.387 10.934 17.912 10.766 17.373 C10.598 16.836 10.51 16.218 10.51 15.513 C10.51 13.81 10.966 12.543 11.869 11.708 C12.775 10.878 14.018 10.461 15.595 10.461 C16.335 10.461 17.016 10.542 17.634 10.71 C18.258 10.878 18.791 11.153 19.247 11.531 C19.697 11.906 20.052 12.39 20.307 12.976 C20.557 13.561 20.686 14.261 20.686 15.077 L20.686 15.561 L17.51 15.561 C17.51 14.741 17.371 14.112 17.092 13.67 C16.814 13.23 16.358 13.009 15.711 13.009 C15.346 13.009 15.04 13.067 14.794 13.177 C14.55 13.291 14.349 13.436 14.205 13.623 C14.061 13.805 13.96 14.021 13.907 14.261 C13.854 14.5 13.825 14.75 13.825 15.004 C13.825 15.532 13.932 15.978 14.147 16.343 C14.363 16.703 14.823 17.034 15.528 17.34 L18.085 18.492 C18.714 18.78 19.228 19.082 19.626 19.394 C20.023 19.706 20.345 20.046 20.581 20.405 C20.82 20.766 20.983 21.163 21.074 21.596 C21.17 22.028 21.213 22.508 21.213 23.04 C21.213 24.852 20.71 26.172 19.708 26.998 C18.699 27.822 17.298 28.234 15.504 28.234 C13.633 28.234 12.295 27.809 11.489 26.959 C10.684 26.109 10.28 24.892 10.28 23.304 L10.28 22.608 L13.595 22.608 L13.595 23.112" class="style1"/><path d="M30.681 10.796 L35.032 27.971 L31.578 27.971 L30.815 24.339 L26.445 24.339 L25.687 27.971 L22.233 27.971 L26.584 10.796 L30.681 10.796 L30.681 10.796 Z M30.244 21.499 L28.657 13.781 L28.609 13.781 L27.021 21.499 L30.244 21.499 L30.244 21.499 Z" class="style1"/><path d="M45.766 10.796 L45.766 13.637 L39.894 13.637 L39.894 17.676 L45.421 17.676 L45.421 20.511 L39.894 20.511 L39.894 27.971 L36.579 27.971 L36.579 10.796 L45.766 10.796" class="style1"/><path d="M56.499 13.634 L50.632 13.634 L50.632 17.673 L56.154 17.673 L56.154 20.514 L50.632 20.514 L50.632 25.134 L56.499 25.134 L56.499 27.969 L47.317 27.969 L47.317 10.794 L56.499 10.794 L56.499 13.634" class="style1"/><path d="M64.175 10.796 C65.557 10.796 66.631 11.162 67.394 11.891 C68.166 12.62 68.545 13.733 68.545 15.225 C68.545 16.375 68.325 17.321 67.878 18.05 C67.437 18.78 66.742 19.245 65.806 19.456 L65.806 19.503 C66.636 19.633 67.24 19.911 67.624 20.343 C68.008 20.78 68.248 21.476 68.339 22.44 C68.373 22.761 68.392 23.106 68.406 23.485 C68.425 23.86 68.44 24.282 68.459 24.747 C68.488 25.662 68.531 26.359 68.593 26.839 C68.684 27.318 68.886 27.65 69.193 27.826 L69.193 27.971 L65.6 27.971 C65.432 27.73 65.322 27.453 65.278 27.141 C65.23 26.828 65.202 26.502 65.187 26.166 L65.096 22.87 C65.062 22.2 64.904 21.667 64.612 21.284 C64.319 20.899 63.83 20.708 63.139 20.708 L61.369 20.708 L61.369 27.971 L58.049 27.971 L58.049 10.796 L64.175 10.796 L64.175 10.796 Z M62.745 18.3 C63.547 18.3 64.161 18.103 64.588 17.709 C65.015 17.321 65.23 16.659 65.23 15.729 C65.23 14.141 64.468 13.344 62.933 13.344 L61.369 13.344 L61.369 18.3 L62.745 18.3 L62.745 18.3 Z" class="style1"/><path d="M73.186 27.345 C73.186 27.939 73.143 28.506 73.061 29.043 C72.975 29.574 72.817 30.041 72.586 30.434 C72.356 30.828 72.044 31.148 71.656 31.398 C71.267 31.648 70.759 31.802 70.149 31.869 L70.149 30.186 C70.543 30.104 70.845 29.878 71.046 29.508 C71.243 29.139 71.344 28.73 71.344 28.279 L71.344 27.969 L70.149 27.969 L70.149 24.217 L73.186 24.217 L73.186 27.345" class="style1"/><path d="M82.607 23.112 C82.607 23.51 82.636 23.88 82.698 24.206 C82.761 24.536 82.876 24.81 83.044 25.036 C83.211 25.261 83.437 25.434 83.725 25.563 C84.008 25.693 84.368 25.754 84.795 25.754 C85.303 25.754 85.759 25.586 86.162 25.241 C86.569 24.897 86.776 24.364 86.776 23.64 C86.776 23.255 86.723 22.925 86.622 22.642 C86.522 22.364 86.358 22.108 86.128 21.884 C85.898 21.657 85.596 21.456 85.217 21.271 C84.843 21.087 84.382 20.901 83.825 20.704 C83.092 20.45 82.453 20.165 81.916 19.864 C81.379 19.561 80.928 19.202 80.568 18.793 C80.208 18.387 79.945 17.912 79.777 17.373 C79.609 16.836 79.522 16.218 79.522 15.513 C79.522 13.81 79.978 12.543 80.88 11.708 C81.787 10.878 83.029 10.461 84.607 10.461 C85.346 10.461 86.027 10.542 86.646 10.71 C87.27 10.878 87.802 11.153 88.258 11.531 C88.709 11.906 89.064 12.39 89.318 12.976 C89.573 13.561 89.697 14.261 89.697 15.077 L89.697 15.561 L86.522 15.561 C86.522 14.741 86.382 14.112 86.104 13.67 C85.831 13.23 85.37 13.009 84.723 13.009 C84.358 13.009 84.051 13.067 83.806 13.177 C83.557 13.291 83.365 13.436 83.216 13.623 C83.072 13.805 82.972 14.021 82.919 14.261 C82.866 14.5 82.837 14.75 82.837 15.004 C82.837 15.532 82.943 15.978 83.159 16.343 C83.375 16.703 83.835 17.034 84.54 17.34 L87.097 18.492 C87.726 18.78 88.239 19.082 88.637 19.394 C89.035 19.706 89.357 20.046 89.592 20.405 C89.832 20.766 89.995 21.163 90.086 21.596 C90.182 22.028 90.225 22.508 90.225 23.04 C90.225 24.852 89.721 26.172 88.719 26.998 C87.711 27.822 86.31 28.234 84.516 28.234 C82.645 28.234 81.307 27.809 80.501 26.959 C79.695 26.109 79.292 24.892 79.292 23.304 L79.292 22.608 L82.607 22.608 L82.607 23.112" class="style1"/><path d="M96.701 10.796 L99.047 22.919 L99.095 22.919 L101.47 10.796 L106.372 10.796 L106.372 27.971 L103.331 27.971 L103.331 14.261 L103.283 14.261 L100.361 27.971 L97.785 27.971 L94.859 14.261 L94.816 14.261 L94.816 27.971 L91.779 27.971 L91.779 10.796 L96.701 10.796" class="style1"/><path d="M116.368 10.796 L120.719 27.971 L117.265 27.971 L116.507 24.339 L112.132 24.339 L111.368 27.971 L107.92 27.971 L112.271 10.796 L116.368 10.796 L116.368 10.796 Z M115.931 21.499 L114.344 13.781 L114.296 13.781 L112.708 21.499 L115.931 21.499 L115.931 21.499 Z" class="style1"/><path d="M128.392 10.796 C129.773 10.796 130.848 11.162 131.61 11.891 C132.382 12.62 132.767 13.733 132.767 15.225 C132.767 16.375 132.542 17.321 132.095 18.05 C131.653 18.78 130.962 19.245 130.022 19.456 L130.022 19.503 C130.853 19.633 131.462 19.911 131.846 20.343 C132.229 20.78 132.464 21.476 132.561 22.44 C132.589 22.761 132.613 23.106 132.628 23.485 C132.642 23.86 132.657 24.282 132.675 24.747 C132.704 25.662 132.747 26.359 132.81 26.839 C132.9 27.318 133.103 27.65 133.409 27.826 L133.409 27.971 L129.816 27.971 C129.653 27.73 129.542 27.453 129.495 27.141 C129.452 26.828 129.419 26.502 129.403 26.166 L129.313 22.87 C129.284 22.2 129.12 21.667 128.829 21.284 C128.536 20.899 128.046 20.708 127.355 20.708 L125.585 20.708 L125.585 27.971 L122.271 27.971 L122.271 10.796 L128.392 10.796 L128.392 10.796 Z M126.966 18.3 C127.764 18.3 128.378 18.103 128.805 17.709 C129.235 17.321 129.452 16.659 129.452 15.729 C129.452 14.141 128.685 13.344 127.149 13.344 L125.585 13.344 L125.585 18.3 L126.966 18.3 L126.966 18.3 Z" class="style1"/><path d="M144.683 13.634 L141.09 13.634 L141.09 27.969 L137.774 27.969 L137.774 13.634 L134.187 13.634 L134.187 10.794 L144.683 10.794 L144.683 13.634" class="style1"/><path d="M155.415 13.634 L149.549 13.634 L149.549 17.673 L155.071 17.673 L155.071 20.514 L149.549 20.514 L149.549 25.134 L155.415 25.134 L155.415 27.969 L146.233 27.969 L146.233 10.794 L155.415 10.794 L155.415 13.634" class="style1"/><g><mask sketch:name="Clip 14" class="style2"><use xlink:href="#path-1"/></mask><g/><path d="M163.089 10.796 C164.472 10.796 165.546 11.162 166.313 11.891 C167.08 12.62 167.464 13.733 167.464 15.225 C167.464 16.375 167.243 17.321 166.792 18.05 C166.351 18.78 165.66 19.245 164.726 19.456 L164.726 19.503 C165.556 19.633 166.159 19.911 166.544 20.343 C166.927 20.78 167.167 21.476 167.259 22.44 C167.287 22.761 167.312 23.106 167.325 23.485 C167.339 23.86 167.354 24.282 167.374 24.747 C167.402 25.662 167.445 26.359 167.507 26.839 C167.599 27.318 167.8 27.65 168.107 27.826 L168.107 27.971 L164.52 27.971 C164.351 27.73 164.24 27.453 164.192 27.141 C164.149 26.828 164.12 26.502 164.101 26.166 L164.011 22.87 C163.981 22.2 163.818 21.667 163.526 21.284 C163.238 20.899 162.744 20.708 162.054 20.708 L160.283 20.708 L160.283 27.971 L156.968 27.971 L156.968 10.796 L163.089 10.796 L163.089 10.796 Z M161.664 18.3 C162.462 18.3 163.075 18.103 163.503 17.709 C163.933 17.321 164.149 16.659 164.149 15.729 C164.149 14.141 163.382 13.344 161.847 13.344 L160.283 13.344 L160.283 18.3 L161.664 18.3 L161.664 18.3 Z" class="style3"/><path d="M0 -0.004 L0 38.715 L9.882 49 L9.882 38.715 L247.373 38.715 L247.373 -0.004 L0 -0.004 L0 -0.004 Z M3.478 3.599 L174.552 3.599 L174.552 35.112 L3.478 35.112 L3.478 3.599 Z M192.047 14.599 L188.823 14.599 L188.823 27.969 L184.544 27.969 L184.544 14.599 L181.368 14.599 L181.368 10.795 L192.047 10.795 L192.047 14.599 L192.047 14.599 Z M203.335 14.45 L197.881 14.45 L197.881 17.386 L202.985 17.386 L202.985 20.897 L197.881 20.897 L197.881 24.313 L203.335 24.313 L203.335 27.969 L193.597 27.969 L193.597 10.795 L203.335 10.795 L203.335 14.45 L203.335 14.45 Z M214.618 14.45 L209.164 14.45 L209.164 17.386 L214.272 17.386 L214.272 20.897 L209.164 20.897 L209.164 24.313 L214.618 24.313 L214.618 27.969 L204.884 27.969 L204.884 10.795 L214.618 10.795 L214.618 14.45 L214.618 14.45 Z M227.767 27.969 L223.071 27.969 L220.216 17.362 L220.173 17.362 L220.173 27.969 L216.168 27.969 L216.168 10.795 L220.96 10.795 L223.718 21.378 L223.767 21.378 L223.767 10.795 L227.767 10.795 L227.767 27.969 L227.767 27.969 Z M239.065 26.995 C238.067 27.82 236.628 28.232 234.738 28.232 C233.851 28.232 233.063 28.156 232.382 28.008 C231.696 27.854 231.12 27.59 230.655 27.211 C230.185 26.838 229.83 26.342 229.581 25.732 C229.341 25.124 229.211 24.371 229.211 23.474 L229.211 22.869 L233.356 22.869 L233.356 23.282 C233.356 24.017 233.49 24.534 233.749 24.831 C234.009 25.13 234.349 25.276 234.767 25.276 C235.203 25.276 235.548 25.114 235.783 24.794 C236.022 24.476 236.144 24.083 236.144 23.618 C236.144 23.056 235.976 22.61 235.649 22.284 C235.317 21.953 234.901 21.671 234.402 21.44 C233.908 21.21 233.366 20.97 232.78 20.729 C232.2 20.49 231.658 20.179 231.164 19.79 C230.66 19.406 230.247 18.902 229.916 18.278 C229.585 17.65 229.422 16.834 229.422 15.822 C229.422 14.076 229.868 12.742 230.761 11.831 C231.647 10.915 232.996 10.459 234.806 10.459 C236.681 10.459 238.033 10.881 238.868 11.72 C239.707 12.565 240.125 13.908 240.125 15.75 L236.119 15.75 L236.119 15.342 C236.119 14.829 236.019 14.392 235.822 14.033 C235.62 13.673 235.313 13.491 234.901 13.491 C234.44 13.491 234.101 13.644 233.884 13.961 C233.673 14.273 233.567 14.618 233.567 15.006 C233.567 15.568 233.74 16.014 234.08 16.34 C234.431 16.671 234.862 16.954 235.386 17.194 C235.903 17.434 236.465 17.679 237.063 17.928 C237.664 18.177 238.226 18.504 238.743 18.902 C239.261 19.305 239.698 19.828 240.043 20.476 C240.39 21.128 240.562 21.972 240.562 23.013 C240.562 24.841 240.062 26.17 239.065 26.995 L239.065 26.995 Z" class="style4"/></g></g></g></svg>