<?xml version="1.0" encoding="UTF-8" standalone="no"?>
<svg width="247px" height="49px" viewBox="0 0 247 49" version="1.1" xmlns="http://www.w3.org/2000/svg" xmlns:xlink="http://www.w3.org/1999/xlink" xmlns:sketch="http://www.bohemiancoding.com/sketch/ns">
    <!-- Generator: Sketch 3.1.1 (8761) - http://www.bohemiancoding.com/sketch -->
    <title>Slice 2</title>
    <desc>Created with Sketch.</desc>
    <defs></defs>
    <g id="Page-1" stroke="none" stroke-width="1" fill="none" fill-rule="evenodd" sketch:type="MSPage">
        <rect id="Rectangle-2" fill="#FFFFFF" sketch:type="MSShapeGroup" x="3" y="3" width="240" height="33"></rect>
        <g id="Group" sketch:type="MSLayerGroup">
            <path d="M13.6,23.1 C13.6,23.5 13.62,23.88 13.7,24.2 C13.75,24.54 13.86,24.8 14.03,25.04 C14.2,25.26 14.43,25.44 14.71,25.56 C15.01,25.69 15.41,25.76 15.81,25.76 C16.31,25.76 16.81,25.59 17.21,25.24 C17.61,24.9 17.81,24.36 17.81,23.64 C17.81,23.24 17.81,22.94 17.71,22.64 C17.61,22.36 17.51,22.11 17.21,21.88 C17.01,21.66 16.71,21.46 16.31,21.28 C15.91,21.08 15.51,20.9 14.91,20.7 C14.21,20.45 13.51,20.16 13.01,19.86 C12.51,19.56 12.01,19.2 11.71,18.79 C11.41,18.39 11.11,17.89 10.91,17.29 C10.81,16.69 10.71,16.09 10.71,15.39 C10.71,13.69 11.21,12.39 12.11,11.59 C13.01,10.69 14.31,10.29 15.91,10.29 C16.71,10.29 17.31,10.39 17.91,10.49 C18.61,10.69 19.11,10.89 19.61,11.29 C20.11,11.69 20.41,12.09 20.71,12.69 C20.96,13.19 21.11,13.89 21.11,14.79 L21.11,15.19 L17.91,15.19 C17.91,14.39 17.77,13.71 17.51,13.29 C17.21,12.89 16.76,12.61 16.11,12.61 C15.75,12.61 15.41,12.67 15.21,12.81 C14.95,12.91 14.75,13.04 14.61,13.21 C14.46,13.41 14.36,13.61 14.31,13.85 C14.25,14.11 14.21,14.35 14.21,14.61 C14.21,15.11 14.31,15.61 14.51,15.91 C14.71,16.31 15.21,16.61 15.91,16.91 L18.45,18.09 C19.05,18.39 19.55,18.69 19.95,18.99 C20.35,19.29 20.65,19.69 20.92,19.99 C21.22,20.39 21.32,20.79 21.42,21.19 C21.52,21.69 21.62,22.09 21.62,22.69 C21.62,24.49 21.12,25.84 20.12,26.67 C19.12,27.5 17.72,27.91 15.92,27.91 C14.02,27.91 12.72,27.51 11.92,26.61 C11.02,25.79 10.62,24.57 10.62,22.97 L10.62,22.27 L13.97,22.27 L13.97,22.77 L13.6,23.1 Z M30.97,10.47 L35.27,27.67 L31.77,27.67 L30.97,24.07 L26.57,24.07 L25.7,28 L22.2,28 L26.55,10.82 L30.65,10.82 L30.97,10.47 Z M30.47,21.17 L28.87,13.47 L28.84,13.47 L27.24,21.17 L30.44,21.17 L30.47,21.17 Z M45.87,10.67 L45.87,13.5 L39.97,13.5 L39.97,17.55 L45.51,17.55 L45.51,20.37 L39.91,20.37 L39.91,28 L36.59,28 L36.59,10.8 L45.79,10.8 L45.87,10.67 Z M56.51,13.63 L50.64,13.63 L50.64,17.67 L56.16,17.67 L56.16,20.51 L50.64,20.51 L50.64,25.21 L56.51,25.21 L56.51,28 L47.33,28 L47.33,10.8 L56.51,10.8 L56.51,13.63 L56.51,13.63 Z M64.18,10.8 C65.58,10.8 66.64,11.16 67.4,11.9 C68.1,12.62 68.5,13.73 68.5,15.22 C68.5,16.37 68.3,17.32 67.8,18.05 C67.3,18.78 66.6,19.25 65.7,19.45 L65.7,19.5 C66.5,19.63 67.1,19.9 67.5,20.34 C67.9,20.78 68.1,21.48 68.2,22.44 L68.2,24.74 C68.2,25.64 68.2,26.34 68.3,26.84 C68.4,27.32 68.6,27.64 68.9,27.84 L68.9,27.97 L65.3,27.97 C65.1,27.73 65,27.45 65,27.14 L64.9,26.17 L64.8,22.87 C64.7,22.2 64.6,21.67 64.3,21.27 C64,20.9 63.5,20.71 62.8,20.71 L61.1,20.71 L61.1,28 L58,28 L58,10.8 L64.14,10.8 L64.18,10.8 Z M62.75,18.3 C63.55,18.3 64.17,18.1 64.6,17.7 C65,17.32 65.2,16.66 65.2,15.73 C65.2,14.13 64.4,13.33 62.9,13.33 L61.3,13.33 L61.3,18.3 L62.6,18.3 L62.75,18.3 Z M73.21,27.34 C73.21,27.94 73.15,28.51 73.07,29.04 C72.97,29.57 72.83,30.04 72.6,30.44 C72.3,30.84 72,31.14 71.6,31.4 C71.2,31.65 70.7,31.8 70.1,31.87 L70.1,30.2 C70.5,30.1 70.8,29.88 71,29.5 C71.2,29.14 71.3,28.73 71.3,28.28 L71.3,27.98 L70.1,27.98 L70.1,24.2 L73.1,24.2 L73.1,27.33 L73.21,27.34 Z M82.5,23.1 C82.5,23.5 82.5,23.88 82.6,24.2 C82.6,24.54 82.7,24.8 82.9,25.04 C83.1,25.26 83.3,25.44 83.6,25.56 C83.9,25.69 84.2,25.76 84.7,25.76 C85.2,25.76 85.6,25.59 86,25.24 C86.4,24.9 86.6,24.36 86.6,23.64 C86.6,23.24 86.5,22.94 86.4,22.64 C86.3,22.36 86.1,22.11 85.9,21.88 C85.7,21.66 85.4,21.46 85,21.28 C84.6,21.08 84.2,20.9 83.6,20.7 C82.9,20.45 82.2,20.16 81.7,19.86 C81.2,19.56 80.7,19.2 80.4,18.79 C80,18.39 79.7,17.89 79.6,17.29 C79.4,16.69 79.3,16.09 79.3,15.39 C79.3,13.69 79.8,12.39 80.7,11.59 C81.6,10.69 82.8,10.29 84.4,10.29 C85.1,10.29 85.8,10.39 86.4,10.49 C87.03,10.69 87.6,10.89 88,11.29 C88.5,11.69 88.8,12.09 89.1,12.69 C89.33,13.19 89.5,13.89 89.5,14.79 L89.5,15.19 L86.3,15.19 C86.3,14.39 86.12,13.71 85.84,13.29 C85.6,12.89 85.14,12.61 84.49,12.61 C84.09,12.61 83.79,12.67 83.59,12.81 C83.29,12.91 83.11,13.04 82.99,13.21 C82.81,13.41 82.71,13.61 82.69,13.85 C82.61,14.11 82.59,14.35 82.59,14.61 C82.59,15.11 82.69,15.61 82.89,15.91 C83.09,16.31 83.54,16.61 84.25,16.91 L86.82,18.11 C87.45,18.41 87.96,18.71 88.36,19.01 C88.76,19.31 89.06,19.71 89.36,20.01 C89.58,20.41 89.76,20.81 89.86,21.21 C89.96,21.71 89.98,22.11 89.98,22.71 C89.98,24.51 89.48,25.86 88.48,26.69 C87.42,27.55 86.02,27.96 84.28,27.96 C82.38,27.96 81.02,27.56 80.21,26.66 C79.41,25.82 79.01,24.6 79.01,23.01 L79.01,22.31 L82.31,22.31 L82.31,22.81 L82.5,23.1 Z M96.41,10.51 L99,22.7 L99.06,22.7 L101.46,10.6 L106.36,10.6 L106.36,28 L103.34,28 L103.34,14.3 L103.29,14.3 L100.29,28 L97.69,28 L94.79,14.3 L94.69,14.3 L94.69,28 L91.59,28 L91.59,10.8 L96.49,10.8 L96.41,10.51 Z M116.19,10.8 L120.51,27.97 L117.05,27.97 L116.25,24.34 L112,24.34 L111.24,27.97 L107.84,27.97 L112.18,10.8 L116.28,10.8 L116.19,10.8 Z M115.79,21.5 L114.19,13.78 L114.09,13.78 L112.49,21.5 L115.72,21.5 L115.79,21.5 Z M128.19,10.8 C129.56,10.8 130.64,11.16 131.39,11.9 C132.19,12.62 132.56,13.73 132.56,15.22 C132.56,16.37 132.26,17.32 131.86,18.05 C131.36,18.78 130.66,19.25 129.76,19.45 L129.76,19.5 C130.56,19.63 131.16,19.9 131.56,20.34 C131.93,20.78 132.16,21.48 132.26,22.44 L132.33,23.48 C132.33,23.86 132.38,24.28 132.4,24.75 C132.4,25.65 132.4,26.35 132.5,26.85 C132.6,27.32 132.8,27.65 133.1,27.83 L133.1,27.97 L129.5,27.97 C129.3,27.73 129.2,27.45 129.2,27.14 L129.1,26.17 L129,22.87 C129,22.2 128.8,21.67 128.5,21.27 C128.2,20.9 127.7,20.71 127,20.71 L125.25,20.71 L125.25,28 L122,28 L122,10.8 L128.1,10.8 L128.19,10.8 Z M126.89,18.3 C127.69,18.3 128.29,18.1 128.72,17.7 C129.17,17.32 129.38,16.66 129.38,15.73 C129.38,14.13 128.68,13.33 127.08,13.33 L125.58,13.33 L125.58,18.3 L126.98,18.3 L126.89,18.3 Z M144.59,13.63 L141,13.63 L141,27.97 L137.7,27.97 L137.7,13.63 L134.1,13.63 L134.1,10.8 L144.6,10.8 L144.6,13.63 L144.59,13.63 Z M155.33,13.63 L149.46,13.63 L149.46,17.67 L154.96,17.67 L154.96,20.51 L149.46,20.51 L149.46,25.21 L155.26,25.21 L155.26,28 L146.1,28 L146.1,10.8 L155.3,10.8 L155.26,13.63 L155.33,13.63 Z" id="Shape" fill="#501B73" sketch:type="MSShapeGroup"></path>
            <path d="M163.1,10.8 C164.47,10.8 165.55,11.16 166.3,11.9 C167.08,12.62 167.46,13.73 167.46,15.22 C167.46,16.37 167.24,17.32 166.79,18.05 C166.29,18.78 165.59,19.25 164.69,19.45 L164.69,19.5 C165.49,19.63 166.09,19.9 166.49,20.34 C166.89,20.78 167.09,21.48 167.19,22.44 L167.19,24.74 C167.19,25.64 167.19,26.34 167.29,26.84 C167.39,27.32 167.59,27.64 167.89,27.84 L167.89,27.97 L164.29,27.97 C164.09,27.73 163.99,27.45 163.99,27.14 C163.89,26.84 163.89,26.5 163.89,26.17 L163.79,22.87 C163.69,22.2 163.59,21.67 163.29,21.27 C162.99,20.9 162.49,20.71 161.79,20.71 L160,20.71 L160,28 L156.7,28 L156.7,10.8 L162.8,10.8 L163.1,10.8 Z M161.66,18.3 C162.46,18.3 163.06,18.1 163.5,17.7 C163.93,17.32 164.15,16.66 164.15,15.73 C164.15,14.13 163.38,13.33 161.85,13.33 L160.28,13.33 L160.28,18.3 L161.66,18.3 L161.66,18.3 Z" id="Shape" fill="#501B73" sketch:type="MSShapeGroup"></path>
            <path d="M0,0 L0,38.72 L9.88,49 L9.88,38.72 L247.38,38.72 L247.38,0 L0,0 L0,0 Z M3.48,3.6 L174.55,3.6 L174.55,35.1 L3.48,35.1 L3.48,3.6 L3.48,3.6 Z M192.05,14.6 L188.82,14.6 L188.82,27.97 L184.54,27.97 L184.54,14.6 L181.37,14.6 L181.37,10.8 L192.05,10.8 L192.05,14.6 L192.05,14.6 Z M203.33,14.45 L197.88,14.45 L197.88,17.39 L202.98,17.39 L202.98,20.89 L197.88,20.89 L197.88,24.29 L203.34,24.29 L203.34,27.89 L193.6,27.89 L193.6,10.8 L203.34,10.8 L203.34,14.45 L203.33,14.45 Z M214.63,14.45 L209.16,14.45 L209.16,17.39 L214.26,17.39 L214.26,20.89 L209.16,20.89 L209.16,24.29 L214.62,24.29 L214.62,27.89 L204.88,27.89 L204.88,10.8 L214.62,10.8 L214.62,14.45 L214.63,14.45 Z M227.77,27.97 L223.07,27.97 L220.22,17.37 L220.17,17.37 L220.17,27.97 L216.17,27.97 L216.17,10.8 L220.97,10.8 L223.72,21.38 L223.77,21.38 L223.77,10.8 L227.77,10.8 L227.77,27.97 L227.77,27.97 Z M239.07,27 C238.07,27.82 236.63,28.23 234.74,28.23 C233.84,28.23 233.06,28.16 232.38,28.01 C231.7,27.91 231.12,27.61 230.66,27.21 C230.19,26.91 229.83,26.41 229.58,25.81 C229.34,25.21 229.21,24.51 229.21,23.61 L229.21,23 L233.41,23 L233.41,23.4 C233.41,24.14 233.61,24.65 233.81,24.95 C234.11,25.25 234.41,25.4 234.81,25.4 C235.31,25.4 235.61,25.22 235.81,24.9 C236.11,24.6 236.21,24.2 236.21,23.73 C236.21,23.17 236.11,22.73 235.71,22.39 C235.41,21.99 235.01,21.79 234.51,21.49 C234.01,21.19 233.51,20.99 232.91,20.79 C232.31,20.49 231.81,20.19 231.31,19.79 C230.81,19.39 230.41,18.89 230.11,18.29 C229.81,17.69 229.61,16.79 229.61,15.79 C229.61,13.99 230.11,12.69 231.01,11.79 C231.91,10.89 233.31,10.39 235.11,10.39 C237.01,10.39 238.31,10.79 239.21,11.59 C240.11,12.39 240.51,13.79 240.51,15.59 L236.51,15.59 L236.51,15.19 C236.51,14.69 236.41,14.19 236.21,13.89 C236.01,13.49 235.71,13.29 235.31,13.29 C234.85,13.29 234.51,13.39 234.29,13.69 C234.09,13.99 233.99,14.32 233.99,14.71 C233.99,15.31 234.17,15.71 234.49,16.08 C234.86,16.41 235.29,16.68 235.79,16.93 L237.49,17.63 C238.09,17.87 238.69,18.19 239.19,18.59 C239.69,18.99 240.16,19.52 240.49,20.17 C240.85,20.82 240.99,21.67 240.99,22.7 C240.99,24.55 240.49,25.88 239.49,26.7 L239.07,27 Z" id="Shape" fill="#00A7D0" sketch:type="MSShapeGroup"></path>
        </g>
    </g>
</svg>