<svg xmlns="http://www.w3.org/2000/svg" viewBox="0 0 273 222" xmlns:xlink="http://www.w3.org/1999/xlink"><defs><path id="a" d="M0-.2h273.4v222H0"/></defs><g fill="none" fill-rule="evenodd"><mask id="b" fill="#fff"><use xlink:href="#a"/></mask><path fill="#FFF" d="M86 222c-31.7 0-61.2-9.3-86-25.2 4.4.5 9 .8 13.4.8 26.3 0 50.4-9 69.6-24-24.5-.5-45.2-16.7-52.4-39 3.5.7 7 1 10.6 1 5 0 10-.7 14.8-2-25.7-5-45-27.8-45-55V78c7.5 4.2 16.2 6.7 25.4 7-15-10-25-27.3-25-46.7 0-10.3 2.8-20 7.6-28.2 27.7 34 69 57 115.6 59-1-4-1.4-8-1.4-12.4 0-31 25-56.2 56-56.2 16.2 0 30.8 7 41 17.8 12.8-3 24.8-7.4 35.6-14-4.2 13-13 24-24.6 31 11.3-1.3 22-4.3 32.2-9-7.5 11.5-17 21.4-28 29.3l.2 7.2C245.6 136.5 189 222 86 222" mask="url(#b)"/></g></svg>