<svg xmlns="http://www.w3.org/2000/svg" viewBox="0 0 1021 718"><g fill="none" fill-rule="evenodd"><path fill="#DFDEDA" d="M647.3 366l-242-161.7 276 144-34 17.6"/><path fill="#FFF" d="M405.3 491.3v-287l276 144-276 143zm606-336.7s-10-70.4-40.7-101.4c-38.8-40.7-82.3-41-102.3-43.3C725.3-.6 511-.6 511-.6h-.5S296-.5 153.2 10c-20 2.3-63.5 2.5-102.4 43.2-30.6 31-40.6 101.4-40.6 101.4S0 237.2 0 320v77.4C0 480 10.2 562.7 10.2 562.7S20.2 633 50.8 664c39 40.8 90 39.5 112.6 43.7 81.8 8 347.3 10.3 347.3 10.3s214.7-.3 357.6-10.7c20-2.3 63.5-2.5 102.3-43.2 30.7-31 40.6-101.2 40.6-101.2s10.3-82.7 10.3-165.3V320c0-82.8-10.3-165.4-10.3-165.4z"/></g></svg>